# xmcd CD database file
#
# Track frame offsets:
#	150
#	17050
#	36707
#	60125
#	76210
#	96140
#	114462
#	139172
#	161075
#	178652
#	197452
#	216352
#	236715
#	253210
#	275240
#	291562
#
# Disc length: 4186 seconds
#
# Revision: 1
# Processed by: cddbd v1.5.2PL0 Copyright (c) Steve Scherf et al.
# Submitted via: CDex 1.70beta3
#
DISCID=f4105810
DTITLE=Various Artist - 90's アイドルJAPAN
DYEAR=1998
DGENRE=JPop
TTITLE0=悲しみに一番近い場所 - 花島優子
TTITLE1=陽春のパッセージ - 田中陽子
TTITLE2=鏡の中のBaby Face - 斉藤満喜子
TTITLE3=絶対！Part2 - 早坂好恵
TTITLE4=赤い花束 - 中嶋美智代
TTITLE5=涙のつぼみたち - 三浦理恵子
TTITLE6=Happy Birthday - 横山知枝
TTITLE7=天使の罠 - 中條かな子
TTITLE8=アフロディーテの夏 - 堀川早苗
TTITLE9=迷子にさせないで - 羽田恵理香
TTITLE10=Miracle Love - 牧瀬里穂
TTITLE11=星は泣かない - 新島弥生
TTITLE12=見つめていても - 瀬能あづさ
TTITLE13=許して・・・ - 大野幹代
TTITLE14=NOW！ - 京野ことみ
TTITLE15=My Home Town - 永作博美
EXTD=YEAR: 1998
EXTT0=
EXTT1=
EXTT2=
EXTT3=
EXTT4=
EXTT5=
EXTT6=
EXTT7=
EXTT8=
EXTT9=
EXTT10=
EXTT11=
EXTT12=
EXTT13=
EXTT14=
EXTT15=
PLAYORDER=
